<svg xmlns="http://www.w3.org/2000/svg" viewBox="0 0 512 512"><path d="M98.63 400.744a65.32 65.32 0 01-30.431-7.491l-8.264 83.18a32.28 32.28 0 0011.751 28.277 32.288 32.288 0 0030.063 5.82c9.534-2.965 17.29-10.328 20.747-19.697l33.244-90.089H98.63zM452.066 476.432l-8.264-83.179a65.308 65.308 0 01-30.431 7.491h-57.11l33.244 90.09c3.457 9.368 11.213 16.731 20.745 19.696a32.288 32.288 0 0030.065-5.82 32.28 32.28 0 0011.751-28.278zM428.001 33.661C408.846 12.269 381.394 0 352.68 0H159.321C130.607 0 103.154 12.269 84 33.661a100.74 100.74 0 00-8.856 11.464c14.339.274 28.124 5.215 39.519 14.34 13.65 10.932 22.229 26.523 24.153 43.905l18.433 166.436H354.75l18.433-166.437c1.925-17.38 10.504-32.972 24.158-43.903 11.393-9.12 25.174-14.061 39.517-14.337a100.88 100.88 0 00-8.857-11.468z" fill="#000f2a"/><path d="M442.155 75.323c-9.407-1.05-18.664 1.639-26.064 7.563-7.397 5.922-12.046 14.369-13.089 23.785L383.09 286.456c-.841 7.599-7.263 13.349-14.909 13.349H143.818c-7.646 0-14.067-5.75-14.909-13.349l-19.911-179.784c-1.043-9.418-5.691-17.866-13.089-23.79-7.297-5.844-16.771-8.593-26.057-7.56-19.45 2.154-33.513 19.72-31.36 39.16l24.885 224.696c1.993 17.995 17.149 31.565 35.254 31.565h314.74c18.104 0 33.26-13.569 35.254-31.565l24.886-224.696c2.151-19.438-11.911-37.004-31.356-39.159z" fill="#000f2a"/></svg>