<?xml version="1.0" encoding="iso-8859-1"?>
<!-- Generator: Adobe Illustrator 19.0.0, SVG Export Plug-In . SVG Version: 6.00 Build 0)  -->
<svg version="1.1" id="Capa_1" xmlns="http://www.w3.org/2000/svg" xmlns:xlink="http://www.w3.org/1999/xlink" x="0px" y="0px"
	 viewBox="0 0 397.5 397.5" style="enable-background:new 0 0 397.5 397.5;" xml:space="preserve">
<g>
	<g>
		<g>
			<path d="M313.75,32.1c0-17.4-14.2-32.1-31.7-32.1h-166.6c-17.5,0-31.7,14.6-31.7,32.1V189h230V32.1z"/>
			<path d="M61.75,294.7v69.8c-0.1,8.7,3.4,17.1,9.6,23.3c6.2,6.2,14.6,9.7,23.4,9.7c18.2,0,33-14.8,33-33V295h-64.4
				C62.85,295,62.25,294.9,61.75,294.7z"/>
			<path d="M335.75,294.7c-0.5,0.2-1,0.3-1.6,0.3h-64.4v69.5c0,8.7,3.5,17.1,9.7,23.3s14.6,9.7,23.4,9.7c18.2,0,32.9-14.8,32.9-33h0
				V294.7z"/>
			<path d="M355.65,253.5V230c0-11.7-9.9-21-21.6-21H63.35c-11.7,0-21.6,9.3-21.6,21v23.4c0.1,8.8,5.5,16.6,13.6,19.9
				c2.5,1,5.3,1.6,8,1.6h270.8c2.7,0,5.4-0.6,7.9-1.6l0.1-0.1c8.1-3.2,13.5-11,13.6-19.7H355.65z"/>
		</g>
	</g>
</g>
<g>
</g>
<g>
</g>
<g>
</g>
<g>
</g>
<g>
</g>
<g>
</g>
<g>
</g>
<g>
</g>
<g>
</g>
<g>
</g>
<g>
</g>
<g>
</g>
<g>
</g>
<g>
</g>
<g>
</g>
</svg>
