<?xml version="1.0" standalone="no"?>
<!DOCTYPE svg PUBLIC "-//W3C//DTD SVG 20010904//EN"
 "http://www.w3.org/TR/2001/REC-SVG-20010904/DTD/svg10.dtd">
<svg version="1.0" xmlns="http://www.w3.org/2000/svg"
 width="1144.000000pt" height="1526.000000pt" viewBox="0 0 1144.000000 1526.000000"
 preserveAspectRatio="xMidYMid meet">

<g transform="translate(0.000000,1526.000000) scale(0.100000,-0.100000)"
fill="#000000" stroke="none">
<path d="M6175 15223 c-338 -71 -704 -311 -991 -646 -349 -408 -487 -847 -368
-1166 34 -90 74 -147 189 -271 219 -234 398 -521 490 -785 l18 -51 -1713
-1869 c-942 -1029 -1744 -1902 -1781 -1941 -39 -43 -72 -87 -79 -110 -23 -72
-1232 -3088 -1263 -3154 -28 -57 -32 -75 -32 -150 0 -68 5 -94 22 -130 17 -33
314 -336 1113 -1135 l1090 -1090 0 -411 0 -412 -92 -6 c-755 -54 -1365 -207
-1908 -478 -301 -150 -471 -267 -655 -452 -92 -93 -130 -138 -160 -196 l-40
-75 0 -225 0 -225 28 -57 c34 -68 108 -139 175 -165 45 -17 157 -18 2927 -21
2045 -2 2899 0 2944 8 35 6 80 19 100 30 51 26 115 92 142 148 23 45 24 55 24
292 0 238 -1 246 -24 295 -32 67 -179 210 -336 328 -500 375 -1173 634 -1927
741 -156 23 -245 32 -490 52 l-78 6 0 394 0 394 898 598 c543 363 910 614 931
637 95 108 104 259 25 381 -18 27 -318 284 -885 755 -579 482 -857 719 -855
730 3 14 1352 2181 1418 2276 62 92 59 1 57 1453 0 729 -2 1337 -3 1352 -1 22
50 83 293 348 161 177 295 320 296 318 6 -5 34 -365 50 -633 43 -709 106
-1050 259 -1395 154 -347 424 -659 684 -789 293 -148 649 -177 1082 -91 1389
277 3012 1770 3529 3245 171 487 201 977 81 1320 -65 184 -173 354 -293 458
-86 76 -284 219 -384 278 -303 179 -621 279 -1023 323 -192 21 -284 25 -741
36 -658 16 -927 56 -1253 187 -285 114 -514 268 -790 532 -146 140 -209 180
-332 211 -94 24 -264 26 -369 3z m4214 -1908 c358 -87 491 -427 375 -955 -129
-584 -538 -1262 -1129 -1868 -613 -629 -1307 -1072 -1922 -1225 -485 -121
-831 -40 -961 226 -43 90 -62 170 -68 302 -17 312 113 746 353 1177 l76 138
26 -21 c245 -188 475 -275 761 -286 370 -13 695 117 957 383 433 441 480 1122
113 1633 -34 46 -60 84 -58 86 2 1 30 18 63 37 341 201 723 344 1035 388 89
12 301 4 379 -15z m-1954 -842 c58 -70 119 -196 135 -281 19 -95 8 -252 -22
-334 -110 -296 -400 -467 -703 -414 -115 19 -234 77 -310 149 l-54 52 80 95
c135 160 358 394 484 509 144 131 322 281 334 281 5 0 30 -26 56 -57z m-3975
-3078 l0 -815 -750 0 -750 0 747 815 c411 448 748 815 750 815 2 0 3 -367 3
-815z m-305 -1527 c-25 -40 -298 -479 -607 -974 l-563 -901 -738 -213 c-406
-116 -739 -210 -741 -209 -1 2 203 519 455 1149 252 630 464 1162 473 1183
l14 37 876 0 876 0 -45 -72z m-319 -3103 l725 -604 -668 -446 -668 -445 -827
827 c-456 456 -822 830 -816 832 7 3 353 102 768 222 415 119 756 217 758 218
1 1 329 -271 728 -604z"/>
</g>
</svg>
