<svg xmlns="http://www.w3.org/2000/svg" xmlns:xlink="http://www.w3.org/1999/xlink" width="225.93" height="49.08" viewBox="0 0 225.93 49.08">
  <defs>
    <linearGradient id="linear-gradient" x1="0.5" x2="0.5" y2="1" gradientUnits="objectBoundingBox">
      <stop offset="0" stop-color="#2e3463"/>
      <stop offset="1" stop-color="#000f2a"/>
    </linearGradient>
    <linearGradient id="linear-gradient-2" x1="0.5" y1="0" x2="0.5" y2="1" xlink:href="#linear-gradient"/>
    <linearGradient id="linear-gradient-3" x1="0.5" y1="0" x2="0.5" y2="1" xlink:href="#linear-gradient"/>
    <linearGradient id="linear-gradient-4" x1="0.5" y1="0" x2="0.5" y2="1" xlink:href="#linear-gradient"/>
    <linearGradient id="linear-gradient-5" x1="0.5" y1="0" x2="0.5" y2="1" xlink:href="#linear-gradient"/>
    <linearGradient id="linear-gradient-8" x1="0.5" y1="0" x2="0.5" y2="1" xlink:href="#linear-gradient"/>
    <linearGradient id="linear-gradient-9" x1="0.5" y1="-1.478" x2="0.5" y2="2.088" xlink:href="#linear-gradient"/>
    <linearGradient id="linear-gradient-10" x1="0.5" y1="-0.783" x2="0.5" y2="1.782" xlink:href="#linear-gradient"/>
  </defs>
  <g id="logo-solution-azul" transform="translate(-0.01)">
    <path id="Caminho_18" data-name="Caminho 18" d="M353.075,64.24v4.068H341.431c-1.953,0-2.75.8-2.75,2.393,0,1.488.638,2.274,2.991,2.274h4.946c5.822,0,7.3,2.672,7.3,5.951,0,3.747-1.953,6.376-6.9,6.376H334.772V81.193h12.243c1.955,0,2.753-.678,2.753-2.313,0-1.675-.878-2.353-2.991-2.353h-4.989c-5.822,0-7.259-2.912-7.259-6.143,0-3.788,1.955-6.143,6.861-6.143Z" transform="translate(-265.284 -50.586)" fill="url(#linear-gradient)"/>
    <path id="Caminho_19" data-name="Caminho 19" d="M453.327,64.24c5.584,0,9.14,3.431,9.14,10.53s-3.55,10.53-9.14,10.53H448.9c-5.622,0-9.14-3.431-9.14-10.53s3.511-10.53,9.14-10.53ZM449.3,68.308c-3.669,0-5.265,1.913-5.265,6.462s1.6,6.423,5.265,6.423h3.628c3.63,0,5.265-1.875,5.265-6.421s-1.635-6.462-5.265-6.462Z" transform="translate(-348.147 -50.586)" fill="url(#linear-gradient)"/>
    <path id="Caminho_20" data-name="Caminho 20" d="M569.918,21.28V51.462H565.69V21.28Z" transform="translate(-447.311 -16.757)" fill="url(#linear-gradient)"/>
    <path id="Caminho_21" data-name="Caminho 21" d="M613.094,64.24v12.6c0,2.472,1.834,4.347,5.184,4.347h3.431c3.35,0,5.144-1.875,5.144-4.347V64.24H631V77c0,4.865-3.112,8.289-9.14,8.289h-3.9c-6.024,0-9.14-3.431-9.14-8.289V64.24Z" transform="translate(-481.274 -50.586)" fill="url(#linear-gradient)"/>
    <path id="Caminho_22" data-name="Caminho 22" d="M729.362,45.774V40.79h4.268v4.984h5.824v4.068H733.63v9.971c0,2.355.837,3.152,2.831,3.152h2.912v3.868h-3.788c-4.349,0-6.224-1.756-6.224-7.259V49.842H726.49V45.774Z" transform="translate(-573.933 -32.12)" fill="url(#linear-gradient)"/>
    <path id="Caminho_23" data-name="Caminho 23" d="M806.378,26.9v4.91H802.11V26.9Zm-.04,7.937V55.9H802.11V34.837Z" transform="translate(-633.48 -21.182)" fill="url(#linear-gradient)"/>
    <path id="Caminho_24" data-name="Caminho 24" d="M854.677,64.24c5.584,0,9.14,3.431,9.14,10.53s-3.55,10.53-9.14,10.53H850.25c-5.624,0-9.14-3.431-9.14-10.53s3.509-10.53,9.14-10.53Zm-4.026,4.068c-3.669,0-5.263,1.913-5.263,6.462s1.59,6.423,5.263,6.423h3.63c3.63,0,5.265-1.875,5.265-6.421s-1.634-6.462-5.265-6.462Z" transform="translate(-664.191 -50.586)" fill="url(#linear-gradient)"/>
    <path id="Caminho_25" data-name="Caminho 25" d="M978.654,64.24c7.14,0,10.608,3.4,10.608,9.214V85.3h-4.268V73.454c0-3.309-1.913-5.146-6.34-5.146h-6.9c-.359,0-.519.2-.519.6V85.3H967V67.511c0-2.472.85-3.271,2.959-3.271Z" transform="translate(-763.323 -50.586)" fill="url(#linear-gradient)"/>
    <path id="Caminho_26" data-name="Caminho 26" d="M497.66,198.539a3.4,3.4,0,0,1,3.562-3.439,3.3,3.3,0,0,1,2.551,1.048l-.625.6a2.5,2.5,0,0,0-1.892-.8,2.584,2.584,0,1,0,0,5.167,2.5,2.5,0,0,0,1.892-.808l.625.606a3.339,3.339,0,0,1-2.565,1.063A3.4,3.4,0,0,1,497.66,198.539Z" transform="translate(-393.741 -153.632)" fill="#3c3c3b"/>
    <path id="Caminho_27" data-name="Caminho 27" d="M582.952,201.348v.835H578.08V195.46h4.744v.835h-3.786v2.066h3.371v.827h-3.371v2.17Z" transform="translate(-457.068 -153.915)" fill="#3c3c3b"/>
    <path id="Caminho_28" data-name="Caminho 28" d="M659.272,195.46v6.723h-.793l-4.039-5.014v5.014h-.961V195.46h.786l4.038,5.014V195.46Z" transform="translate(-516.441 -153.915)" fill="#3c3c3b"/>
    <path id="Caminho_29" data-name="Caminho 29" d="M733.134,196.3h-2.3v-.835h5.563v.835h-2.306v5.888h-.952Z" transform="translate(-577.351 -153.915)" fill="#3c3c3b"/>
    <path id="Caminho_30" data-name="Caminho 30" d="M811.978,201.348v.835H807.1V195.46h4.744v.835h-3.785v2.066h3.371v.827h-3.371v2.17Z" transform="translate(-637.41 -153.915)" fill="#3c3c3b"/>
    <path id="Caminho_31" data-name="Caminho 31" d="M887.035,202.183l-1.45-2.066c-.134,0-.278.021-.425.021H883.5v2.045h-.959V195.46h2.621c1.747,0,2.8.884,2.8,2.338a2.125,2.125,0,0,1-1.488,2.125l1.594,2.257Zm-.028-4.379c0-.961-.638-1.509-1.872-1.509H883.5v3.025h1.635C886.364,199.32,887.008,198.763,887.008,197.8Z" transform="translate(-696.815 -153.915)" fill="#3c3c3b"/>
    <path id="Caminho_32" data-name="Caminho 32" d="M28.955,108.452a3.662,3.662,0,0,0,.98-2.638,4.463,4.463,0,0,0-.213-1.373,2.812,2.812,0,0,0-.742-1.178,3.807,3.807,0,0,0-1.418-.808,7.078,7.078,0,0,0-2.249-.308H18.467a13.326,13.326,0,0,1-4.84-.742,7.462,7.462,0,0,1-2.944-1.958A6.834,6.834,0,0,1,9.2,96.7a8.8,8.8,0,0,1-.213-.993c-.125,1.333-.193,2.729-.193,4.2a37.432,37.432,0,0,0,1.124,9.565H25.879A4.089,4.089,0,0,0,28.955,108.452Z" transform="translate(-8.78 -75.367)" fill="url(#linear-gradient)"/>
    <path id="Caminho_33" data-name="Caminho 33" d="M167.651,72.724q-1.943,2.245-1.941,7.348,0,5.057,1.913,7.3t6.236,2.245h10.247a37.3,37.3,0,0,0,1.133-9.565,37.271,37.271,0,0,0-1.133-9.565H173.863Q169.6,70.475,167.651,72.724Z" transform="translate(-132.347 -55.507)" fill="url(#linear-gradient)"/>
    <path id="Caminho_34" data-name="Caminho 34" d="M47.617,35.615q-3.42-3.641-3.422-11.053,0-7.458,3.422-11.1t9.877-3.639h8.245C62.2,3.231,55.855,0,47.589,0H37.272C27.92,0,21.084,4.07,17.93,12.407c.055-.062.111-.125.17-.185a7.475,7.475,0,0,1,2.855-1.766,12.341,12.341,0,0,1,4.187-.638H40.05v5.144H24.959a3.836,3.836,0,0,0-2.923.982,3.53,3.53,0,0,0-.9,2.512,4.287,4.287,0,0,0,.2,1.288,2.727,2.727,0,0,0,.7,1.133,3.4,3.4,0,0,0,1.331.784,6.706,6.706,0,0,0,2.125.285h6.9a13.482,13.482,0,0,1,4.927.763,8,8,0,0,1,3.031,1.983,6.589,6.589,0,0,1,1.526,2.791,12.251,12.251,0,0,1,.414,3.139,10.857,10.857,0,0,1-.527,3.445,6.98,6.98,0,0,1-1.658,2.725,7.76,7.76,0,0,1-2.9,1.809,12.48,12.48,0,0,1-4.3.655H19.1c3.518,6.589,9.85,9.824,18.175,9.824H47.589c8.266,0,14.613-3.231,18.15-9.824H57.494Q51.041,39.256,47.617,35.615Z" transform="translate(-15.977 0)" fill="url(#linear-gradient)"/>
  </g>
</svg>
