<svg height="512pt" viewBox="0 -68 512 512" width="512pt" xmlns="http://www.w3.org/2000/svg">
  <path d="m181 60c0-33.085938-26.914062-60-60-60h-61c-33.085938 0-60 26.914062-60 60v15h181zm0 0" fill="#000f2a"/>
  <path d="m482 233.785156-53.785156-53.785156h-42.425782l96.210938 96.214844v98.785156h30v-195h-30zm0 0" fill="#000f2a"/>
  <path d="m452 0h-181c-33.085938 0-60 26.914062-60 60v15h301v-15c0-33.085938-26.914062-60-60-60zm0 0" fill="#000f2a"/>
  <path d="m30 233.785156v-53.785156h-30v195h30v-98.785156l96.214844-96.214844h-42.429688zm0 0" fill="#000f2a"/>
  <path d="m0 105h512v45h-512zm0 0" fill="#000f2a"/>
</svg>